<?xml version="1.0" encoding="UTF-8"?>
<!DOCTYPE svg PUBLIC "-//W3C//DTD SVG 1.1//EN" "http://www.w3.org/Graphics/SVG/1.1/DTD/svg11.dtd">
<!-- Creator: CorelDRAW 2018 (64-Bit) -->
<svg xmlns="http://www.w3.org/2000/svg" xml:space="preserve" width="260.2mm" height="260.2mm" version="1.1" style="shape-rendering:geometricPrecision; text-rendering:geometricPrecision; image-rendering:optimizeQuality; fill-rule:evenodd; clip-rule:evenodd"
viewBox="0 0 16062.42 16062.42"
 xmlns:xlink="http://www.w3.org/1999/xlink">
 <defs>
  <style type="text/css">
   <![CDATA[
    .str0 {stroke:black;stroke-width:12.35;stroke-miterlimit:22.9256}
    .str1 {stroke:black;stroke-width:10.45;stroke-linejoin:bevel;stroke-miterlimit:22.9256}
    .str2 {stroke:black;stroke-width:4.7;stroke-linejoin:bevel;stroke-miterlimit:22.9256}
    .fil4 {fill:none}
    .fil5 {fill:black}
    .fil0 {fill:black}
    .fil1 {fill:#B3B3B3}
    .fil6 {fill:#CCCCCC}
    .fil2 {fill:yellow}
    .fil3 {fill:white}
   ]]>
  </style>
 </defs>
 <g id="Livello_x0020_1">
  <metadata id="CorelCorpID_0Corel-Layer"/>
  <circle class="fil0 str0" cx="8031.21" cy="8031.21" r="8025.04"/>
  <circle class="fil1 str0" cx="8031.21" cy="8031.21" r="7716.38"/>
  <ellipse class="fil0 str0" cx="7938.92" cy="7761.71" rx="1001.76" ry="805.76"/>
  <ellipse class="fil2 str0" cx="7942.08" cy="8993.2" rx="1479.94" ry="685.99"/>
  <ellipse class="fil3 str0" cx="7951.33" cy="11464.42" rx="1784.27" ry="1971.36"/>
  <ellipse class="fil0 str0" cx="7974.65" cy="11567.36" rx="1889.49" ry="685.99"/>
  <ellipse class="fil2 str0" cx="8021.19" cy="10881.38" rx="1824.34" ry="685.99"/>
  <ellipse class="fil0 str0" cx="7942.09" cy="9846.96" rx="1824.34" ry="1034.42"/>
  <path class="fil3 str1" d="M9059.53 9083.27l762.51 3214.92c45.9,194.24 174.15,358.84 351.29,450.83 177.13,91.99 386.64,101.78 571.93,27.59l1123.7 -451.02c222.48,-88.85 382.42,-287.41 421.86,-523.7 39.44,-236.29 -49.14,-477.57 -230.7,-633.87l-2674.25 -2294.11c-47.8,-41.04 -117.49,-44.18 -168.85,-7.7l-103.47 73.55c-45.54,32.35 -66.89,89.16 -54.02,143.52z"/>
  <path class="fil3 str1" d="M6862.39 9054.99l-762.51 3214.92c-45.9,194.24 -174.15,358.84 -351.29,450.83 -177.13,91.99 -386.64,101.78 -571.93,27.59l-1123.7 -451.02c-222.48,-88.85 -382.42,-287.41 -421.86,-523.7 -39.44,-236.29 49.14,-477.57 230.7,-633.87l2674.25 -2294.11c47.8,-41.04 117.49,-44.18 168.85,-7.7l103.47 73.55c45.54,32.35 66.89,89.16 54.02,143.52z"/>
  <line class="fil4 str2" x1="12492.9" y1="7610.38" x2="12492.9" y2= "7588.61" />
  <path class="fil5 str2" d="M5987.43 6096.53l125.73 110.23c449.01,-513.82 1097.94,-808.86 1780.31,-809.42 682.37,-0.56 1334.36,296.34 1784.23,809.42l125.72 -110.23c-482.77,-549.24 -1178.82,-863.79 -1910.08,-863.19 -731.26,0.6 -1424.04,313.16 -1905.92,863.19z"/>
  <path class="fil5 str2" d="M4981.6 5214.64l125.73 110.23c702.42,-803.81 1717.57,-1265.34 2785.03,-1266.23 1067.47,-0.88 2087.41,463.59 2791.16,1266.23l125.73 -110.23c-737.28,-838.76 -1800.26,-1319.14 -2917,-1318.22 -1116.75,0.91 -2174.74,478.24 -2910.64,1318.22z"/>
  <path class="fil5 str2" d="M11815.07 4332.75l-125.73 110.23c-960.27,-1091.6 -2344.2,-1716.7 -3798.06,-1715.51 -1453.86,1.19 -2831.31,622.33 -3789.79,1715.51l-125.73 -110.23c987.77,-1129.56 2414.82,-1778.08 3915.35,-1779.32 1500.53,-1.23 2934.32,651.39 3923.95,1779.32z"/>
  <path class="fil5 str2" d="M3926.51 8366.48c22.69,-36.4 41.01,-75.35 54.56,-116.04 11.72,-46.19 18.23,-93.55 19.4,-141.19 -1.57,-51.46 -9.9,-102.48 -24.78,-151.77 -17.08,-42.98 -39.82,-83.49 -67.62,-120.46 -29.37,-32.58 -62.96,-61.08 -99.89,-84.73 -38.76,-20.52 -80.03,-35.88 -122.76,-45.72 33.47,-15.77 64.97,-35.43 93.84,-58.59 25.88,-24.16 48.74,-51.34 68.1,-80.98 17.22,-31.31 30.95,-64.42 40.92,-98.74 8.23,-36.83 12.87,-74.37 13.84,-112.1 -1.85,-59.85 -12.46,-119.11 -31.52,-175.88 -22.93,-49.14 -54.74,-93.63 -93.84,-131.21 -47.14,-35.38 -99.68,-62.92 -155.61,-81.55 -78.48,-18.11 -158.72,-27.52 -239.26,-28.04l-370.39 0c-19.66,1.72 -38.55,8.48 -54.85,19.6 -16.82,18.95 -26.03,43.44 -25.85,68.77l0 1458.48c0.24,25.24 9.36,49.58 25.75,68.77 16.23,11.06 35,17.8 54.56,19.6l423.78 0c54.38,-0.68 108.65,-5.07 162.43,-13.16 45.3,-9.48 89.73,-22.68 132.85,-39.48 39.3,-17.94 76.69,-39.79 111.61,-65.23 31.69,-26.7 60.12,-57.04 84.73,-90.38zm-182.31 -374.23c-16.28,-34.36 -38.67,-65.47 -66.08,-91.83 -33.07,-24.57 -69.89,-43.63 -109.02,-56.47 -54.09,-12.11 -109.31,-18.54 -164.74,-19.21l-252.24 0 0 565.56 306.21 0c42.59,-0.75 84.93,-6.58 126.13,-17.38 33.98,-12.41 65.96,-29.76 94.89,-51.48 26.16,-24.39 47.9,-53.12 64.26,-84.92 14.11,-37.76 21.96,-77.57 23.24,-117.85 -1.1,-43.05 -8.74,-85.67 -22.66,-126.41zm-79.63 -727.04c-11.75,-30.67 -29.08,-58.9 -51.09,-83.27 -27.01,-22.66 -57.8,-40.34 -90.98,-52.26 -48.67,-11.54 -98.49,-17.61 -148.5,-18.06l-221.87 0 0 540.98 244.36 0c45.79,-0.38 91.24,-7.99 134.65,-22.58 31.46,-15.37 60.13,-35.89 84.82,-60.71 21.22,-26.8 37.87,-56.92 49.28,-89.15 9.14,-34.35 14.36,-69.64 15.55,-105.17 -0.9,-37.13 -6.34,-74 -16.22,-109.79z"/>
  <path class="fil5 str2" d="M5279.15 7880.84l0 37.84c0.1,25.38 -8.59,50.02 -24.59,69.73 -16.41,12 -35.83,19.19 -56.1,20.75l-743.07 0c0.96,58 7.27,115.78 18.83,172.61 13.4,47.13 34.67,91.66 62.9,131.7 32.39,35.22 71.27,63.85 114.5,84.32 55.65,18.23 113.68,28.14 172.23,29.4 48.05,-0.61 95.97,-5.04 143.31,-13.26l108.72 -29.77 75.5 -29.78 44.58 -13.26 15.75 4.52 10.67 13.44 5.67 25.08 1.9 39.18 -1.23 28.93 -3.18 21.8 -6.33 17.29 -11.34 14.78 -40.92 22.96 -88.27 31.03 -125.44 27.17c-50.32,7.2 -101.04,11.21 -151.86,12 -83.13,-1.79 -165.61,-15.01 -245.13,-39.27 -65.61,-27.89 -125.62,-67.44 -177.12,-116.71 -46.88,-58.06 -83.56,-123.68 -108.46,-194.03 -22.47,-88.73 -34.74,-179.74 -36.59,-271.25 1.99,-89.34 14.69,-178.12 37.84,-264.44 25.78,-71.67 62.63,-138.86 109.21,-199.11 49.8,-51.43 108.1,-93.9 172.33,-125.54 72.53,-26.24 148.73,-40.99 225.82,-43.71 77.81,1.65 154.82,16.09 227.94,42.76 57.79,29.11 110.09,68.05 154.55,115.07 38.45,51.51 68.47,108.79 88.94,169.72 16.96,68.13 26.5,137.88 28.44,208.06z"/>
  <path class="fil6 str2" d="M4455.38 7861.62l614.75 0c0.29,-92.21 -24.8,-182.74 -72.52,-261.65 -61.64,-57.53 -141.78,-91.18 -226.02,-94.91 -46.35,1.52 -92.02,11.52 -134.77,29.5 -36.4,20.61 -69.18,47.05 -97.02,78.27 -25.22,34.92 -45.58,73.12 -60.51,113.54 -12.85,44.08 -20.87,89.44 -23.91,135.25z"/>
  <path class="fil5 str2" d="M6557.81 7880.84l0 37.84c0.11,25.38 -8.57,50.02 -24.58,69.73 -16.41,11.99 -35.83,19.18 -56.1,20.75l-743.09 0c0.96,58 7.26,115.78 18.83,172.61 13.4,47.13 34.67,91.66 62.92,131.7 32.38,35.21 71.26,63.84 114.49,84.32 55.65,18.23 113.68,28.13 172.23,29.4 48.05,-0.6 95.97,-5.04 143.31,-13.26l108.74 -29.77 75.5 -29.78 44.56 -13.26 15.77 4.52 10.65 13.44 5.67 25.08 1.93 39.18 -1.25 28.93 -3.16 21.8 -6.34 17.29 -11.33 14.78 -40.92 22.96 -88.29 31.03 -125.44 27.17c-50.32,7.2 -101.04,11.21 -151.86,12 -83.12,-1.79 -165.61,-15.01 -245.13,-39.27 -65.6,-27.9 -125.61,-67.44 -177.13,-116.71 -46.88,-58.07 -83.54,-123.68 -108.44,-194.03 -22.47,-88.73 -34.75,-179.74 -36.6,-271.25 1.98,-89.34 14.69,-178.13 37.86,-264.44 25.76,-71.68 62.61,-138.86 109.2,-199.11 49.8,-51.44 108.1,-93.91 172.33,-125.54 72.54,-26.24 148.73,-40.99 225.82,-43.71 77.81,1.65 154.82,16.09 227.94,42.76 57.79,29.11 110.09,68.05 154.54,115.07 38.45,51.51 68.47,108.79 88.95,169.72 16.96,68.13 26.49,137.89 28.43,208.06z"/>
  <path class="fil1 str2" d="M5734.05 7861.62l614.75 0c0.31,-92.22 -24.78,-182.74 -72.52,-261.65 -61.64,-57.53 -141.79,-91.18 -226.02,-94.91 -46.34,1.52 -92.02,11.52 -134.75,29.5 -36.41,20.6 -69.19,47.04 -97.02,78.27 -25.24,34.92 -45.59,73.11 -60.51,113.54 -12.85,44.08 -20.88,89.44 -23.93,135.25z"/>
  <path class="fil5 str2" d="M10693.12 8518.15l5 28.53 -3.75 17.59 -16.32 12.67 -35.35 7.59 -60.61 2.49 -53.51 -2.49 -33.42 -8.26 -19.5 -15.85 -11.9 -25.27 -150.04 -385.94 -54.95 -120.84c-18.77,-34.13 -41.43,-65.97 -67.52,-94.89 -27.37,-25.24 -58.43,-46.14 -92.12,-61.97 -41.13,-13.67 -84.06,-21.15 -127.38,-22.19l-145.04 0 0 697.17 -5.75 17.77 -18.06 12.01 -33.53 7.57 -53.3 3.17 -53.32 -3.17 -34.09 -7.57 -18.06 -12.01 -5.18 -17.77 0 -1518.23c-0.17,-25.43 9.06,-50.04 25.93,-69.07 16.38,-11.18 35.37,-17.96 55.13,-19.69l348.48 0 103.27 3.16 74.06 7.02c57.69,11.24 113.99,28.72 167.9,52.15 44.96,23.95 86.16,54.37 122.28,90.29 30.99,37.67 56,79.89 74.15,125.16 14.85,50.6 23.16,102.89 24.7,155.61 -1.15,50.14 -8.57,99.93 -22.09,148.22 -15.69,41.35 -37.13,80.28 -63.69,115.65 -29.62,32.93 -63.1,62.18 -99.71,87.11 -41.46,24.43 -84.94,45.26 -129.96,62.26 25.93,12.3 50.46,27.33 73.19,44.84 22.3,19.8 42.78,41.56 61.18,65.03l53.51 87.11 50.53 111.15 146.19 360.21 22.66 63.67z"/>
  <path class="fil1 str2" d="M10348.29 7509.68c11.58,-35.74 18.11,-72.92 19.4,-110.46 -1.89,-56.83 -16.43,-112.52 -42.55,-163.01 -37.87,-44.49 -87.3,-77.63 -142.83,-95.76l-70.7 -12.67 -103.35 -3.85 -181.54 0 0 553.26 210.37 0c49.72,-0.83 99.16,-7.86 147.14,-20.93 37.33,-13.86 72.23,-33.58 103.36,-58.4 25.42,-25.46 46,-55.34 60.71,-88.17z"/>
  <path class="fil5 str2" d="M11953.74 7880.84l0 37.84c0.11,25.38 -8.58,50.03 -24.59,69.73 -16.4,12 -35.82,19.19 -56.08,20.75l-743.09 0c0.96,58 7.26,115.78 18.83,172.61 13.4,47.13 34.67,91.66 62.92,131.7 32.38,35.21 71.26,63.84 114.49,84.32 55.65,18.23 113.68,28.13 172.23,29.4 48.05,-0.61 95.97,-5.04 143.31,-13.26l108.74 -29.77 75.5 -29.78 44.56 -13.26 15.75 4.52 10.67 13.44 5.67 25.08 1.93 39.18 -1.25 28.93 -3.16 21.8 -6.34 17.29 -11.33 14.78 -40.92 22.96 -88.29 31.03 -125.44 27.17c-50.32,7.2 -101.04,11.21 -151.86,12 -83.12,-1.79 -165.61,-15.01 -245.13,-39.27 -65.6,-27.9 -125.61,-67.44 -177.13,-116.71 -46.88,-58.07 -83.54,-123.68 -108.44,-194.03 -22.47,-88.73 -34.75,-179.74 -36.6,-271.25 1.99,-89.34 14.69,-178.12 37.84,-264.44 25.77,-71.67 62.63,-138.86 109.22,-199.11 49.8,-51.44 108.1,-93.91 172.33,-125.54 72.54,-26.24 148.73,-40.99 225.82,-43.71 77.81,1.65 154.82,16.09 227.92,42.76 57.8,29.11 110.1,68.05 154.56,115.07 38.45,51.51 68.47,108.79 88.95,169.72 16.96,68.13 26.49,137.89 28.43,208.06z"/>
  <path class="fil1 str2" d="M11129.97 7861.62l614.75 0c0.3,-92.22 -24.79,-182.74 -72.52,-261.65 -61.64,-57.53 -141.79,-91.18 -226.02,-94.91 -46.34,1.52 -92.02,11.52 -134.75,29.5 -36.42,20.59 -69.19,47.04 -97.02,78.27 -25.24,34.92 -45.59,73.11 -60.51,113.54 -12.85,44.08 -20.88,89.44 -23.93,135.25z"/>
  <path class="fil5 str2" d="M13070.66 8320.29l1.92 43.9 -1.25 37.66 -4.41 26.79 -7.59 19.41 -20.27 24.88 -53.69 40.53 -85.29 43.22 -103.07 30.83c-37.95,6.99 -76.4,10.94 -114.97,11.8 -74.2,-2.09 -147.61,-15.8 -217.56,-40.63 -59.81,-29.34 -113.6,-69.61 -158.6,-118.72 -41.93,-58.59 -74.73,-123.2 -97.3,-191.62 -20.55,-85.89 -31.79,-173.74 -33.53,-262.04 1.53,-98.04 15.35,-195.48 41.12,-290.08 26.54,-71.85 64.52,-138.93 112.48,-198.65 48.8,-47.92 105.71,-86.82 168.1,-114.87 67.64,-22.31 138.11,-34.93 209.29,-37.48 35.4,0.77 70.69,4.23 105.57,10.39l94.14 27.17 76.45 38.81 48.71 37.56 20.83 24.59 9.52 20.66 5.08 26.22 1.25 36.5c0.51,22.71 -3.34,45.3 -11.33,66.56 -6.1,9.97 -16.16,16.86 -27.66,18.93 -16,-3.2 -30.91,-10.44 -43.32,-21.04l-62.24 -46.58c-29.06,-18.01 -59.55,-33.59 -91.16,-46.59 -40.87,-12.92 -83.36,-20.01 -126.22,-21.05 -88.99,6.46 -171.66,48.37 -229.48,116.33l-2.48 3.72 -2.43 3.87 -2.4 4.01 -2.36 4.16 -2.31 4.3 -2.28 4.43 -4.44 9.25 -4.29 9.72 -4.13 10.16 -3.98 10.55 -3.81 10.9 -3.67 11.22 -3.51 11.49 -6.54 23.63 -5.93 24.24 -5.3 24.51 -4.67 24.46 -4.06 24.1 -3.43 23.41 -2.81 22.39 -2.18 21.04 -1.56 19.38 -0.93 17.4 -0.23 7.85 -0.08 7.23c0.87,65.15 7.82,130.09 20.74,193.95 13.44,49.12 33.99,96 61,139.17 27.06,34.01 60.59,62.32 98.66,83.29 42.79,16.53 88.05,25.79 133.9,27.37 42.84,-1.12 85.24,-9 125.63,-23.34 32.46,-14.58 63.75,-31.67 93.57,-51.1l66.64 -50.43c11.98,-10.86 26.41,-18.64 42.08,-22.67l15.18 5.11 10.67 17.19 6.24 30.65z"/>
 </g>
</svg>
